<?xml version="1.0" encoding="UTF-8"?><svg id="Layer_2" xmlns="http://www.w3.org/2000/svg" viewBox="0 0 756.09 183.99"><defs><style>.cls-1{fill:#fff;}</style></defs><g id="Layer_1-2"><path class="cls-1" d="M134.25,69.97c0-13.22-11.44-23.98-25.5-23.98-5.08,0-9.98,1.4-14.17,4.05-11.27,7.11-25.27,7.11-36.54,0-4.19-2.65-9.09-4.05-14.17-4.05-14.06,0-25.5,10.76-25.5,23.98s11.44,23.98,25.5,23.98c5.08,0,9.98-1.4,14.17-4.05,11.27-7.11,25.27-7.11,36.54,0,4.19,2.65,9.09,4.05,14.17,4.05,14.06,0,25.5-10.76,25.5-23.98M152.61,69.97c0,23.34-19.68,42.34-43.86,42.34-8.55,0-16.84-2.38-23.97-6.88-5.23-3.3-11.72-3.3-16.95,0-7.13,4.5-15.42,6.88-23.97,6.88C19.68,112.31,0,93.32,0,69.97S19.68,27.63,43.86,27.63c8.55,0,16.84,2.38,23.97,6.88,5.23,3.3,11.72,3.3,16.95,0,7.13-4.5,15.42-6.88,23.97-6.88,24.19,0,43.86,18.99,43.86,42.34"/><path class="cls-1" d="M180.27,2.42L199.09.21v65.14c0,20.29,14.12,28.82,25.59,28.82,14.41,0,26.47-9.71,26.47-28.82V2.42l18.82-2.21v67.94c0,26.76-20.15,44.12-45.29,44.12-23.38,0-44.41-17.35-44.41-44.12V2.42Z"/><path class="cls-1" d="M300.41,70.06c0,14.56,12.06,24.12,24.12,24.12s24.26-9.41,24.26-24.12-12.06-24.12-24.26-24.12-24.12,9.56-24.12,24.12M368.35,70.06c0,25.29-21.47,42.2-43.82,42.2-8.82,0-17.5-2.65-24.85-7.5v32.94l-18.82,2.21v-70.14c.15-25.15,21.62-41.91,43.67-41.91s43.82,16.76,43.82,42.2"/><path class="cls-1" d="M195.17,166.89c0-3.73-2.67-6.36-5.7-6.36s-5.7,2.63-5.7,6.36,2.67,6.36,5.7,6.36,5.7-2.63,5.7-6.36M180.26,149.13h3.95v9.87c.4-.4.83-.79,1.36-1.1.92-.53,2.24-1.1,4.12-1.1,5.26,0,9.43,4.16,9.43,10.08s-4.16,10.09-9.43,10.09c-1.97,0-3.42-.53-4.34-1.1-.53-.31-.96-.7-1.36-1.1l-.88,1.97h-2.85v-27.62Z"/><path class="cls-1" d="M204.38,180.48c2.24,0,3.24-1.05,3.73-2.41l.66-1.97-7.67-19.08h4.17l5.48,14.25,5.48-14.25h4.17l-8.33,21.05c-1.75,4.39-3.29,5.92-6.36,5.92-.35,0-.61-.04-.92-.09l-.4-.13v-3.29Z"/><path class="cls-1" d="M233.32,149.13h4.17v17.54c0,3.95,2.63,6.58,6.14,6.58s6.14-2.63,6.14-6.58v-17.54h4.17v17.54c0,5.96-4.34,10.3-10.3,10.3s-10.3-4.34-10.3-10.3v-17.54Z"/><path class="cls-1" d="M274.32,166.89c0-3.73-2.67-6.36-5.7-6.36s-5.7,2.63-5.7,6.36,2.67,6.36,5.7,6.36,5.7-2.63,5.7-6.36M259.41,157.02h2.85l.88,1.97c.4-.39.83-.79,1.36-1.1.92-.53,2.37-1.1,4.34-1.1,5.26,0,9.43,4.17,9.43,10.09s-4.17,10.09-9.43,10.09c-1.89,0-3.2-.53-4.12-1.1-.53-.31-.97-.7-1.36-1.1v8.99h-3.95v-26.75Z"/><path class="cls-1" d="M299.53,169.52c-.92,4.21-4.12,7.46-8.77,7.46-5.26,0-9.43-4.17-9.43-10.09s4.17-10.09,9.43-10.09c4.65,0,7.85,3.24,8.77,7.45h-4.17c-.66-2.24-2.15-3.73-4.6-3.73-2.85,0-5.48,2.63-5.48,6.36s2.63,6.36,5.48,6.36c2.46,0,3.95-1.49,4.6-3.73h4.17Z"/><path class="cls-1" d="M317.29,166.89c0-3.73-2.63-6.36-5.48-6.36s-5.48,2.63-5.48,6.36,2.63,6.36,5.48,6.36,5.48-2.63,5.48-6.36M302.38,166.89c0-5.92,4.17-10.09,9.43-10.09s9.43,4.17,9.43,10.09-4.16,10.09-9.43,10.09-9.43-4.17-9.43-10.09"/><path class="cls-1" d="M339.21,166.89c0-3.73-2.63-6.36-5.48-6.36s-5.48,2.63-5.48,6.36,2.63,6.36,5.48,6.36,5.48-2.63,5.48-6.36M324.31,166.89c0-5.92,4.17-10.09,9.43-10.09s9.43,4.17,9.43,10.09-4.16,10.09-9.43,10.09-9.43-4.17-9.43-10.09"/><path class="cls-1" d="M362.24,166.89c0-3.73-2.67-6.36-5.7-6.36s-5.7,2.63-5.7,6.36,2.67,6.36,5.7,6.36,5.7-2.63,5.7-6.36M347.33,157.02h2.85l.88,1.97c.4-.39.83-.79,1.36-1.1.92-.53,2.37-1.1,4.34-1.1,5.26,0,9.43,4.17,9.43,10.09s-4.16,10.09-9.43,10.09c-1.89,0-3.2-.53-4.12-1.1-.53-.31-.97-.7-1.36-1.1v8.99h-3.95v-26.75Z"/><path class="cls-1" d="M419.61,42.2c0,14.56,12.06,24.12,24.12,24.12s24.26-9.41,24.26-24.12-12.06-24.12-24.26-24.12-24.12,9.56-24.12,24.12M487.55,42.2c0,25.29-21.47,42.2-43.82,42.2-8.82,0-17.5-2.65-24.85-7.5v32.94l-18.82,2.21V41.91C400.2,16.76,421.67,0,443.72,0s43.82,16.76,43.82,42.2"/><path class="cls-1" d="M528.94,29.41h18.82v43.38c0,14.85,10.29,21.18,18.97,21.18,11.03,0,19.85-7.21,19.85-21.18V29.41h18.82v45.59c0,22.35-16.91,37.06-38.68,37.06-20.29,0-37.79-14.71-37.79-37.06V29.41Z"/><rect class="cls-1" x="498.86" width="18.82" height="110.29"/><path class="cls-1" d="M649.58,112.05c8.74,0,16.6-2.65,22.15-7.47,5.27-4.57,8.17-10.76,8.17-17.41,0-17.91-15.62-22.2-28.18-25.64-8.06-2.21-14.42-3.96-14.42-8.8,0-5.18,4.21-8.66,10.48-8.66,4.76,0,10.66,3.11,12.17,8.16h18.97c-2.38-15.5-14.03-24.37-32.05-24.37-16.77,0-29.41,10.69-29.41,24.88,0,17.19,15.44,21.31,27.84,24.62,8.25,2.2,14.76,3.94,14.76,8.92,0,4.7-4.6,9.57-12.29,9.57-6.83,0-11.93-3.9-13.11-9.97h-18.96c1.91,16.89,13.92,26.18,33.88,26.18Z"/><path class="cls-1" d="M714.21,69.74h-24.64v-16.42h24.64v-25.46h17.24v25.46h24.64v16.42h-24.64v25.46h-17.24v-25.46Z"/></g></svg>